HIERARCHY
ROOT Hips
{
	OFFSET 0.00000 0.00000 0.00000
	CHANNELS 6 Xposition Yposition Zposition Zrotation Yrotation Xrotation 
	JOINT LHipJoint
	{
		OFFSET 0 0 0
		CHANNELS 3 Zrotation Yrotation Xrotation
		JOINT LeftHip
		{
			OFFSET 1.61024 -1.73873 0.75100
			CHANNELS 3 Zrotation Yrotation Xrotation
			JOINT LeftKnee
			{
				OFFSET 2.29819 -6.31424 0.00000
				CHANNELS 3 Zrotation Yrotation Xrotation
				JOINT LeftAnkle
				{
					OFFSET 2.76618 -7.60002 0.00000
					CHANNELS 3 Zrotation Yrotation Xrotation
					JOINT LeftToe
					{
						OFFSET 0.16838 -0.46263 2.02361
						CHANNELS 3 Zrotation Yrotation Xrotation
						End Site
						{
							OFFSET 0.00000 -0.00000 1.04662
						}
					}
				}
			}
		}
	}
	JOINT RHipJoint
	{
		OFFSET 0 0 0
		CHANNELS 3 Zrotation Yrotation Xrotation
		JOINT RightHip
		{
			OFFSET -1.46153 -1.73873 0.75100
			CHANNELS 3 Zrotation Yrotation Xrotation
			JOINT RightKnee
			{
				OFFSET -2.38373 -6.54924 0.00000
				CHANNELS 3 Zrotation Yrotation Xrotation
				JOINT RightAnkle
				{
					OFFSET -2.80314 -7.70157 0.00000
					CHANNELS 3 Zrotation Yrotation Xrotation
					JOINT RightToe
					{
						OFFSET -0.16142 -0.44349 2.02101
						CHANNELS 3 Zrotation Yrotation Xrotation
						End Site
						{
							OFFSET -0.00000 -0.00000 1.04381
						}
					}
				}
			}
		}
	}
	JOINT lowerback
	{
		OFFSET 0 0 0
		CHANNELS 3 Zrotation Yrotation Xrotation
		JOINT Chest
		{
			OFFSET -0.01629 1.66985 0.14750
			CHANNELS 3 Zrotation Yrotation Xrotation
			JOINT Chest2
			{
				OFFSET 0.02086 1.62378 0.20980
				CHANNELS 3 Zrotation Yrotation Xrotation
				JOINT lowerneck
				{
					OFFSET 0 0 0
					CHANNELS 3 Zrotation Yrotation Xrotation
					JOINT Neck
					{
						OFFSET -0.05690 1.78719 0.08702
						CHANNELS 3 Zrotation Yrotation Xrotation
						JOINT Head
						{
							OFFSET 0.16035 1.73871 -0.38470
							CHANNELS 3 Zrotation Yrotation Xrotation
							End Site
							{
								OFFSET 0.05645 1.80914 -0.14081
							}
						}
					}
				}
				JOINT LeftCollar
				{
					OFFSET 0 0 0
					CHANNELS 3 Zrotation Yrotation Xrotation
					JOINT LeftShoulder
					{
						OFFSET 2.83089 1.66494 -0.46008
CHANNELS 3 Zrotation Xrotation Yrotation
						JOINT LeftElbow
						{
OFFSET 0 -5.548930 -0.000000
CHANNELS 3 Zrotation Xrotation Yrotation
							JOINT LeftWrist
							{
OFFSET 0 -3.028980 -0.000000
CHANNELS 3 Zrotation Xrotation Yrotation
								JOINT lhand
								{
									OFFSET 0 0 0
CHANNELS 3 Zrotation Xrotation Yrotation
									JOINT LFingers
									{
OFFSET 0 -0.640950 -0.000000
CHANNELS 3 Zrotation Xrotation Yrotation
										End Site
										{
OFFSET 0 -0.516750 -0.000000
										}
									}
								}
								JOINT LThumb
								{
OFFSET 0 0.000000 0.000000
CHANNELS 3 Zrotation Xrotation Yrotation
									End Site
									{
OFFSET 0 -0.524640 0.524640
									}
								}
							}
						}
					}
				}
				JOINT RightCollar
				{
					OFFSET 0 0 0
					CHANNELS 3 Zrotation Yrotation Xrotation
					JOINT RightShoulder
					{
						OFFSET -2.84442 1.45761 -0.18088
CHANNELS 3 Zrotation Xrotation Yrotation
						JOINT RightElbow
						{
OFFSET 0 -5.351900 -0.000000
CHANNELS 3 Zrotation Xrotation Yrotation
							JOINT RightWrist
							{
OFFSET 0 -3.025310 -0.000000
CHANNELS 3 Zrotation Xrotation Yrotation
								JOINT rhand
								{
									OFFSET 0 0 0
CHANNELS 3 Zrotation Xrotation Yrotation
									JOINT RFingers
									{
OFFSET 0 -0.783890 -0.000000
CHANNELS 3 Zrotation Xrotation Yrotation
										End Site
										{
OFFSET 0 -0.631990 -0.000000
										}
									}
								}
								JOINT RThumb
								{
OFFSET 0 0.000000 0.000000
CHANNELS 3 Zrotation Xrotation Yrotation
									End Site
									{
OFFSET 0 -0.641640 0.641640
									}
								}
							}
						}
					}
				}
			}
		}
	}
}
MOTION
Frames: 8
Frame Time: 0.008333333333333333
0.575382 17.791447 0.688768 -428.679152 87.684153 -408.275830 0.000000 0.000000 0.000000 -11.547191 -18.434332 -4.220605 0.000000 0.000000 0.000000 -0.106998 14.106819 -18.780848 0.018179 -0.869760 -2.390562 0.000000 0.000000 0.000000 18.011802 18.492657 -11.682992 -0.390971 -4.015035 11.118959 0.081066 -15.271692 -20.817711 -0.617479 5.028905 -13.991009 -0.118657 -1.606281 -9.256314 2.774645 -0.888404 -15.034499 2.986445 0.222112 -10.964347 -4.070674 -0.525973 -12.513430 13.115335 2.702411 -19.710815 4.812835 1.626007 -4.030644 0.000000 0.000000 0.000000 157.199330 -38.656976 81.446426 21.727989 -32.652225 6.445651 1.173314 -32.084526 -17.852795 0.000000 0.000000 0.000000 -7.125000 0.000000 0.000000 -25.081109 46.186272 0.782913 0.000000 0.000000 0.000000 -154.433320 -42.408139 -74.157172 -24.324765 -35.489414 -7.901256 -15.197534 -29.669927 -20.592338 0.000000 0.000000 0.000000 7.125000 0.000000 0.000000 8.508957 8.895372 7.172609
0.503565 17.806655 0.710705 -424.245890 87.568408 -404.561217 0.000000 0.000000 0.000000 -11.683290 -18.335010 -3.647428 0.000000 0.000000 0.000000 -0.202815 14.730285 -18.553550 0.048617 -1.421473 -3.909357 0.000000 0.000000 0.000000 18.291346 17.829436 -11.233247 -0.375179 -3.934156 10.891390 0.079454 -14.766799 -20.093095 -0.679703 5.271272 -14.683884 -0.207019 -1.526990 -9.193534 2.466123 -0.933322 -14.174951 2.689634 0.119297 -9.973694 -4.696852 -0.593217 -11.467008 13.594618 1.590941 -13.751534 4.982547 1.081112 -2.281992 0.000000 0.000000 0.000000 147.631019 -37.232040 60.235877 35.316351 -45.015858 15.043704 4.002943 -32.247272 -19.201604 0.000000 0.000000 0.000000 -7.125000 0.000000 0.000000 -23.181863 47.787281 1.679253 0.000000 0.000000 0.000000 -142.430771 -41.325651 -56.000536 -40.249351 -48.188940 -18.633603 -15.551365 -33.235740 -20.606420 0.000000 0.000000 0.000000 7.125000 0.000000 0.000000 8.283369 8.838789 6.987659
0.434882 17.812988 0.732403 -420.917543 87.808220 -402.122536 0.000000 0.000000 0.000000 -12.163458 -18.485936 -2.803365 0.000000 0.000000 0.000000 -0.386765 15.669917 -17.718849 0.226064 -3.053852 -8.429313 0.000000 0.000000 0.000000 18.260974 16.998629 -11.271109 -0.435431 -4.234341 11.736947 -0.066941 -13.664492 -20.179907 -0.617036 5.023219 -13.975642 -0.640696 -1.559934 -9.236947 2.139149 -1.109493 -13.271711 2.566070 -0.013858 -8.881487 -5.438279 -0.773109 -10.005377 13.689719 0.434266 -7.972970 5.063392 0.518868 -0.700781 0.000000 0.000000 0.000000 138.282984 -35.237428 43.061495 55.363650 -54.924267 30.517865 11.070803 -28.500256 -17.419747 0.000000 0.000000 0.000000 -7.125000 0.000000 0.000000 -16.047606 47.051865 0.834508 0.000000 0.000000 0.000000 -130.803959 -40.245782 -41.293593 -65.037006 -57.487843 -38.566342 -15.609943 -36.069719 -20.621729 0.000000 0.000000 0.000000 7.125000 0.000000 0.000000 8.246663 8.816096 6.959740
0.364324 17.823329 0.749604 -422.770269 87.676893 -405.047781 0.000000 0.000000 0.000000 -12.230827 -18.469430 -1.828322 0.000000 0.000000 0.000000 -0.451191 16.085197 -17.591285 0.271724 -3.348699 -9.251501 0.000000 0.000000 0.000000 18.731083 16.306367 -10.955974 -0.490307 -4.489623 12.458230 -0.182101 -12.664808 -20.145818 -0.571713 4.842186 -13.459118 -0.420393 -1.410339 -8.807537 1.717529 -1.043278 -12.501046 1.993761 -0.077154 -8.255596 -6.090123 -1.194008 -8.381045 13.770286 -0.812908 -3.124293 5.140713 -0.090403 0.575755 0.000000 0.000000 0.000000 128.322252 -35.267545 27.982969 83.320524 -59.819806 54.219434 16.449430 -21.830283 -17.216914 0.000000 0.000000 0.000000 -7.125000 0.000000 0.000000 -11.008557 47.577528 0.708278 0.000000 0.000000 0.000000 -118.414276 -40.885814 -27.264954 -92.950920 -59.959495 -62.555171 -14.425314 -31.769229 -20.077614 0.000000 0.000000 0.000000 7.125000 0.000000 0.000000 8.984346 9.504774 7.472332
0.312442 17.817632 0.775209 -418.684573 87.983559 -401.582035 0.000000 0.000000 0.000000 -12.664078 -18.718381 -1.299459 0.000000 0.000000 0.000000 -0.503274 16.452618 -17.561860 0.261155 -3.287428 -9.080012 0.000000 0.000000 0.000000 18.632071 15.678644 -10.845786 -0.519004 -4.617086 12.819622 -0.153823 -12.653637 -19.820063 -0.643394 5.130226 -14.280724 -1.017675 -1.504909 -9.209610 1.528726 -1.213297 -11.943320 2.111102 -0.156570 -7.383465 -5.770955 -1.348224 -7.998819 12.097657 -1.682127 2.464947 4.540243 -0.482440 2.204398 0.000000 0.000000 0.000000 115.152445 -36.707939 10.577971 109.070983 -58.578847 76.436969 15.410943 -16.151733 -14.259928 0.000000 0.000000 0.000000 -7.125000 0.000000 0.000000 -11.131286 44.458354 -0.150743 0.000000 0.000000 0.000000 -103.594724 -42.389420 -10.159999 -115.918690 -57.301446 -82.242780 -10.951575 -24.591521 -21.142548 0.000000 0.000000 0.000000 7.125000 0.000000 0.000000 11.224265 8.809054 9.563354
0.280543 17.819932 0.785786 -427.579691 88.123790 -411.012008 0.000000 0.000000 0.000000 -12.709461 -19.154478 -0.723400 0.000000 0.000000 0.000000 -0.565916 16.911559 -17.578489 0.248750 -3.208880 -8.860747 0.000000 0.000000 0.000000 18.877120 15.108251 -10.660251 -0.542858 -4.720446 13.112962 -0.201053 -12.332947 -19.940285 -0.635833 5.099598 -14.193351 -0.959195 -1.548630 -9.662441 1.402618 -1.280076 -11.801897 1.933328 -0.207601 -6.972454 -5.373998 -1.386938 -8.426789 10.448514 -2.191298 8.821328 3.975363 -0.658538 4.188396 0.000000 0.000000 0.000000 99.889843 -37.859832 -10.644503 121.827523 -55.802595 87.175026 16.247106 -3.268707 -12.719496 0.000000 0.000000 0.000000 -7.125000 0.000000 0.000000 -10.007848 42.987518 -0.502260 0.000000 0.000000 0.000000 -86.824174 -42.266414 11.217682 -129.888483 -53.038989 -93.736403 -6.253775 -16.425335 -24.682915 0.000000 0.000000 0.000000 7.125000 0.000000 0.000000 14.164482 5.789051 13.079466
0.247774 17.806569 0.787927 -439.307269 88.399551 -423.586382 0.000000 0.000000 0.000000 -13.059618 -19.654114 0.213771 0.000000 0.000000 0.000000 -0.621218 17.273950 -17.523716 0.294316 -3.488657 -9.642426 0.000000 0.000000 0.000000 19.039760 14.331637 -10.100765 -0.558137 -4.785510 13.297812 -0.126563 -12.708945 -19.585193 -0.840141 5.846769 -16.340633 -1.015422 -1.403488 -10.016830 1.541771 -1.103660 -11.380066 2.108490 -0.129879 -6.311873 -6.052031 -1.332167 -8.557158 9.383517 -2.170805 13.401101 3.810032 -0.649144 5.602978 0.000000 0.000000 0.000000 81.604036 -37.962902 -31.423912 123.955114 -55.160364 88.928153 17.203345 7.852917 -8.582205 0.000000 0.000000 0.000000 -7.125000 0.000000 0.000000 -8.372465 38.828618 -1.282768 0.000000 0.000000 0.000000 -71.679722 -39.359772 31.707353 -136.877224 -49.814287 -99.205356 -0.724014 -8.255342 -25.917448 0.000000 0.000000 0.000000 7.125000 0.000000 0.000000 17.434567 5.034532 16.644417
0.213483 17.796816 0.784442 -460.433174 88.423979 -446.094424 0.000000 0.000000 0.000000 -13.511765 -20.127116 1.806701 0.000000 0.000000 0.000000 -0.766449 17.951232 -16.794763 0.535564 -4.685653 -13.014805 0.000000 0.000000 0.000000 19.429153 13.689120 -8.884487 -0.585682 -4.900186 13.624108 -0.149488 -12.852775 -20.025996 -0.797985 5.701706 -15.921406 -0.847328 -1.130128 -9.586133 1.339109 -0.845906 -10.517076 1.812688 -0.069517 -5.618004 -4.888764 -1.093680 -8.449710 8.036415 -1.907750 16.037722 3.242132 -0.500727 6.368700 0.000000 0.000000 0.000000 64.655784 -36.065300 -47.952639 119.154163 -56.529527 84.953866 19.040164 17.497440 -6.210621 0.000000 0.000000 0.000000 -7.125000 0.000000 0.000000 -6.484587 36.480678 -1.365747 0.000000 0.000000 0.000000 -59.697693 -35.768504 47.640087 -140.057050 -48.035513 -101.603055 2.119192 -7.821664 -27.056956 0.000000 0.000000 0.000000 7.125000 0.000000 0.000000 19.039302 4.118013 18.707205
